<svg width="32" height="32" viewBox="0 0 32 32" fill="none" xmlns="http://www.w3.org/2000/svg">
<mask id="mask0_1596_13422" style="mask-type:alpha" maskUnits="userSpaceOnUse" x="0" y="0" width="32" height="32">
<rect width="32" height="32" fill="#D9D9D9"/>
</mask>
<g mask="url(#mask0_1596_13422)">
<path d="M6.66699 22.6667V13.3334H9.33366V22.6667H6.66699ZM14.667 22.6667V13.3334H17.3337V22.6667H14.667ZM2.66699 10.6667V8.00004L16.0003 1.33337L29.3337 8.00004V10.6667H2.66699ZM2.66699 28V25.3334H18.7337C18.7781 25.8 18.8337 26.25 18.9003 26.6834C18.967 27.1167 19.067 27.5556 19.2003 28H2.66699ZM22.667 17.6667V13.3334H25.3337V16.3334L22.667 17.6667ZM26.667 32C25.1337 31.6223 23.8614 30.7389 22.8503 29.35C21.8392 27.9612 21.3337 26.4223 21.3337 24.7334V21.3334L26.667 18.6667L32.0003 21.3334V24.7334C32.0003 26.4223 31.4948 27.9612 30.4837 29.35C29.4725 30.7389 28.2003 31.6223 26.667 32ZM25.7003 28L30.3337 23.4L28.9337 22L25.7003 25.1667L24.4003 23.8667L23.0003 25.3L25.7003 28Z" fill="#0EA046"/>
</g>
</svg>
