<svg width="96" height="96" viewBox="0 0 96 96" fill="none" xmlns="http://www.w3.org/2000/svg">
<path d="M0 32C0 14.3269 14.3269 0 32 0H64C81.6731 0 96 14.3269 96 32V64C96 81.6731 81.6731 96 64 96H32C14.3269 96 0 81.6731 0 64V32Z" fill="#A9EFC4"/>
<mask id="mask0_1403_6568" style="mask-type:alpha" maskUnits="userSpaceOnUse" x="24" y="24" width="48" height="48">
<rect x="24" y="24" width="48" height="48" fill="#D9D9D9"/>
</mask>
<g mask="url(#mask0_1403_6568)">
<path d="M33.9999 58V44H37.9999V58H33.9999ZM45.9999 58V44H49.9999V58H45.9999ZM27.9999 40V36L47.9999 26L67.9999 36V40H27.9999ZM27.9999 66V62H52.0999C52.1666 62.7 52.2499 63.375 52.3499 64.025C52.4499 64.675 52.5999 65.3333 52.7999 66H27.9999ZM57.9999 50.5V44H61.9999V48.5L57.9999 50.5ZM63.9999 72C61.6999 71.4333 59.7916 70.1083 58.2749 68.025C56.7583 65.9417 55.9999 63.6333 55.9999 61.1V56L63.9999 52L71.9999 56V61.1C71.9999 63.6333 71.2416 65.9417 69.7249 68.025C68.2083 70.1083 66.2999 71.4333 63.9999 72ZM62.5499 66L69.4999 59.1L67.3999 57L62.5499 61.75L60.5999 59.8L58.4999 61.95L62.5499 66Z" fill="#06411D"/>
</g>
</svg>
