<svg width="32" height="32" viewBox="0 0 32 32" fill="none" xmlns="http://www.w3.org/2000/svg">
<mask id="mask0_1596_13417" style="mask-type:alpha" maskUnits="userSpaceOnUse" x="0" y="0" width="32" height="32">
<rect width="32" height="32" fill="#D9D9D9"/>
</mask>
<g mask="url(#mask0_1596_13417)">
<path d="M16.0663 26.6667C13.0886 26.6667 10.5552 25.6334 8.46634 23.5667C6.37745 21.5 5.33301 18.9778 5.33301 16V15.7667L3.19967 17.9L1.33301 16.0334L6.66634 10.7L11.9997 16.0334L10.133 17.9L7.99967 15.7667V16C7.99967 18.2223 8.78301 20.1112 10.3497 21.6667C11.9163 23.2223 13.8219 24 16.0663 24C16.6441 24 17.2108 23.9334 17.7663 23.8C18.3219 23.6667 18.8663 23.4667 19.3997 23.2L21.3997 25.2C20.5552 25.6889 19.6886 26.0556 18.7997 26.3C17.9108 26.5445 16.9997 26.6667 16.0663 26.6667ZM25.333 21.3L19.9997 15.9667L21.8663 14.1L23.9997 16.2334V16C23.9997 13.7778 23.2163 11.8889 21.6497 10.3334C20.083 8.77782 18.1775 8.00004 15.933 8.00004C15.3552 8.00004 14.7886 8.06671 14.233 8.20004C13.6775 8.33337 13.133 8.53337 12.5997 8.80004L10.5997 6.80004C11.4441 6.31115 12.3108 5.94449 13.1997 5.70004C14.0886 5.4556 14.9997 5.33337 15.933 5.33337C18.9108 5.33337 21.4441 6.36671 23.533 8.43337C25.6219 10.5 26.6663 13.0223 26.6663 16V16.2334L28.7997 14.1L30.6663 15.9667L25.333 21.3Z" fill="#0EA046"/>
</g>
</svg>
