<svg width="32" height="32" viewBox="0 0 32 32" fill="none" xmlns="http://www.w3.org/2000/svg">
<mask id="mask0_1596_13432" style="mask-type:alpha" maskUnits="userSpaceOnUse" x="0" y="0" width="32" height="32">
<rect width="32" height="32" fill="#D9D9D9"/>
</mask>
<g mask="url(#mask0_1596_13432)">
<path d="M14.667 22.6666H17.3337V14.6666H14.667V22.6666ZM16.9503 11.6166C17.2059 11.3611 17.3337 11.0444 17.3337 10.6666C17.3337 10.2888 17.2059 9.97218 16.9503 9.71663C16.6948 9.46107 16.3781 9.33329 16.0003 9.33329C15.6225 9.33329 15.3059 9.46107 15.0503 9.71663C14.7948 9.97218 14.667 10.2888 14.667 10.6666C14.667 11.0444 14.7948 11.3611 15.0503 11.6166C15.3059 11.8722 15.6225 12 16.0003 12C16.3781 12 16.6948 11.8722 16.9503 11.6166ZM16.0003 29.3333C14.1559 29.3333 12.4225 28.9833 10.8003 28.2833C9.1781 27.5833 7.76699 26.6333 6.56699 25.4333C5.36699 24.2333 4.41699 22.8222 3.71699 21.2C3.01699 19.5777 2.66699 17.8444 2.66699 16C2.66699 14.1555 3.01699 12.4222 3.71699 10.8C4.41699 9.17774 5.36699 7.76663 6.56699 6.56663C7.76699 5.36663 9.1781 4.41663 10.8003 3.71663C12.4225 3.01663 14.1559 2.66663 16.0003 2.66663C17.8448 2.66663 19.5781 3.01663 21.2003 3.71663C22.8225 4.41663 24.2337 5.36663 25.4337 6.56663C26.6337 7.76663 27.5837 9.17774 28.2837 10.8C28.9837 12.4222 29.3337 14.1555 29.3337 16C29.3337 17.8444 28.9837 19.5777 28.2837 21.2C27.5837 22.8222 26.6337 24.2333 25.4337 25.4333C24.2337 26.6333 22.8225 27.5833 21.2003 28.2833C19.5781 28.9833 17.8448 29.3333 16.0003 29.3333Z" fill="#B2ADA9"/>
</g>
</svg>
