<svg width="104" height="36" viewBox="0 0 104 36" fill="none" xmlns="http://www.w3.org/2000/svg">
<path d="M42.5765 15.8233V0H50.2621C52.2061 0 53.7809 0.557582 54.9865 1.67274C56.2071 2.77284 56.8174 4.13665 56.8174 5.76419C56.8174 7.39172 56.2071 8.76307 54.9865 9.87824C53.7809 10.9783 52.2061 11.5284 50.2621 11.5284H46.7584V15.8233H42.5765ZM46.7584 7.68558H50.1491C50.9327 7.68558 51.5204 7.51228 51.9122 7.16568C52.3191 6.81907 52.5226 6.35191 52.5226 5.76419C52.5226 5.17647 52.3191 4.7093 51.9122 4.3627C51.5204 4.01609 50.9327 3.84279 50.1491 3.84279H46.7584V7.68558Z" fill="#3C3C3C"/>
<path d="M56.5932 15.8233L60.8881 0H71.4536L75.7485 15.8233H71.4536L70.6625 12.6586H61.6792L60.8881 15.8233H56.5932ZM62.5834 9.04186H69.7583L68.402 3.84279H63.9397L62.5834 9.04186Z" fill="#3C3C3C"/>
<path d="M73.9384 0H78.3463L81.737 6.10326H82.0761L85.4668 0H89.8747L83.9974 10.1721V15.8233H79.8156V10.1721L73.9384 0Z" fill="#3C3C3C"/>
<path d="M89.0123 10.013V6.84836H103.479V10.013H89.0123Z" fill="#3C3C3C"/>
<path d="M41.3333 23.5674V19.7246H55.4612V23.5674H50.4881V36H46.3063V23.5674H41.3333Z" fill="#3C3C3C"/>
<path d="M56.6938 36V19.7246H68.9003V23.5674H60.8757V25.9409H67.318V29.3316H60.8757V31.9766H68.9003V36H56.6938Z" fill="#3C3C3C"/>
<path d="M72.5969 33.6265C70.9543 32.0291 70.133 30.0324 70.133 27.6363C70.133 25.2402 70.9543 23.251 72.5969 21.6686C74.2546 20.0713 76.3719 19.2726 78.9488 19.2726C81.797 19.2726 84.0349 20.3124 85.6624 22.392C86.3857 23.3414 86.8981 24.3737 87.1995 25.4888H82.9046C82.6786 25.0217 82.3998 24.6299 82.0682 24.3134C81.2696 23.5147 80.2297 23.1153 78.9488 23.1153C77.6377 23.1153 76.5753 23.5298 75.7616 24.3586C74.9478 25.1874 74.5409 26.28 74.5409 27.6363C74.5409 28.9926 74.9478 30.0851 75.7616 30.914C76.5753 31.7428 77.6377 32.1572 78.9488 32.1572C80.3654 32.1572 81.4655 31.7051 82.2491 30.8009C82.6108 30.394 82.8669 29.942 83.0176 29.4446H87.3125C86.981 30.6653 86.446 31.7579 85.7076 32.7223C84.0951 34.9074 81.8422 36 78.9488 36C76.3719 36 74.2546 35.2088 72.5969 33.6265Z" fill="#3C3C3C"/>
<path d="M89.0123 36V19.7246H93.1942V25.6019H99.2974V19.7246H103.479V36H99.2974V29.4446H93.1942V36H89.0123Z" fill="#3C3C3C"/>
<path d="M36 36H0V0H36V36ZM8.18164 8.18164V18L18 27.8184H27.8184V8.18164H8.18164Z" fill="#50F57E"/>
</svg>
