<svg width="32" height="32" viewBox="0 0 32 32" fill="none" xmlns="http://www.w3.org/2000/svg">
<mask id="mask0_1596_13427" style="mask-type:alpha" maskUnits="userSpaceOnUse" x="0" y="0" width="32" height="32">
<rect width="32" height="32" fill="#D9D9D9"/>
</mask>
<g mask="url(#mask0_1596_13427)">
<path d="M9.99967 14.6667C8.71079 14.6667 7.61079 14.2112 6.69967 13.3C5.78856 12.3889 5.33301 11.2889 5.33301 10C5.33301 8.71115 5.78856 7.61115 6.69967 6.70004C7.61079 5.78893 8.71079 5.33337 9.99967 5.33337C11.2886 5.33337 12.3886 5.78893 13.2997 6.70004C14.2108 7.61115 14.6663 8.71115 14.6663 10C14.6663 11.2889 14.2108 12.3889 13.2997 13.3C12.3886 14.2112 11.2886 14.6667 9.99967 14.6667ZM9.99967 12C10.5552 12 11.0275 11.8056 11.4163 11.4167C11.8052 11.0278 11.9997 10.5556 11.9997 10C11.9997 9.44449 11.8052 8.97226 11.4163 8.58337C11.0275 8.19449 10.5552 8.00004 9.99967 8.00004C9.44412 8.00004 8.9719 8.19449 8.58301 8.58337C8.19412 8.97226 7.99967 9.44449 7.99967 10C7.99967 10.5556 8.19412 11.0278 8.58301 11.4167C8.9719 11.8056 9.44412 12 9.99967 12ZM21.9997 26.6667C20.7108 26.6667 19.6108 26.2112 18.6997 25.3C17.7886 24.3889 17.333 23.2889 17.333 22C17.333 20.7112 17.7886 19.6112 18.6997 18.7C19.6108 17.7889 20.7108 17.3334 21.9997 17.3334C23.2886 17.3334 24.3886 17.7889 25.2997 18.7C26.2108 19.6112 26.6663 20.7112 26.6663 22C26.6663 23.2889 26.2108 24.3889 25.2997 25.3C24.3886 26.2112 23.2886 26.6667 21.9997 26.6667ZM23.4163 23.4167C23.8052 23.0278 23.9997 22.5556 23.9997 22C23.9997 21.4445 23.8052 20.9723 23.4163 20.5834C23.0275 20.1945 22.5552 20 21.9997 20C21.4441 20 20.9719 20.1945 20.583 20.5834C20.1941 20.9723 19.9997 21.4445 19.9997 22C19.9997 22.5556 20.1941 23.0278 20.583 23.4167C20.9719 23.8056 21.4441 24 21.9997 24C22.5552 24 23.0275 23.8056 23.4163 23.4167ZM7.19967 26.6667L5.33301 24.8L24.7997 5.33337L26.6663 7.20004L7.19967 26.6667Z" fill="#0EA046"/>
</g>
</svg>
