<svg width="96" height="96" viewBox="0 0 96 96" fill="none" xmlns="http://www.w3.org/2000/svg">
<path d="M0 32C0 14.3269 14.3269 0 32 0H64C81.6731 0 96 14.3269 96 32V64C96 81.6731 81.6731 96 64 96H32C14.3269 96 0 81.6731 0 64V32Z" fill="#A9EFC4"/>
<mask id="mask0_1418_2068" style="mask-type:alpha" maskUnits="userSpaceOnUse" x="24" y="24" width="48" height="48">
<rect x="24" y="24" width="48" height="48" fill="#D9D9D9"/>
</mask>
<g mask="url(#mask0_1418_2068)">
<path d="M63.9 66C59.7333 66 55.6167 65.0917 51.55 63.275C47.4833 61.4583 43.7833 58.8833 40.45 55.55C37.1167 52.2167 34.5417 48.5167 32.725 44.45C30.9083 40.3833 30 36.2667 30 32.1C30 31.5 30.2 31 30.6 30.6C31 30.2 31.5 30 32.1 30H40.2C40.6667 30 41.0833 30.1583 41.45 30.475C41.8167 30.7917 42.0333 31.1667 42.1 31.6L43.4 38.6C43.4667 39.1333 43.45 39.5833 43.35 39.95C43.25 40.3167 43.0667 40.6333 42.8 40.9L37.95 45.8C38.6167 47.0333 39.4083 48.225 40.325 49.375C41.2417 50.525 42.25 51.6333 43.35 52.7C44.3833 53.7333 45.4667 54.6917 46.6 55.575C47.7333 56.4583 48.9333 57.2667 50.2 58L54.9 53.3C55.2 53 55.5917 52.775 56.075 52.625C56.5583 52.475 57.0333 52.4333 57.5 52.5L64.4 53.9C64.8667 54.0333 65.25 54.275 65.55 54.625C65.85 54.975 66 55.3667 66 55.8V63.9C66 64.5 65.8 65 65.4 65.4C65 65.8 64.5 66 63.9 66Z" fill="#06411D"/>
</g>
</svg>
