<svg width="24" height="24" viewBox="0 0 24 24" fill="none" xmlns="http://www.w3.org/2000/svg">
<path d="M12 22C17.5228 22 22 17.5228 22 12C22 6.47715 17.5228 2 12 2C6.47715 2 2 6.47715 2 12C2 17.5228 6.47715 22 12 22Z" fill="white"/>
<path d="M21.378 15.4775C21.78 14.3942 22 13.2224 22 11.9992C22 10.776 21.78 9.60432 21.378 8.521H2.62199C2.22004 9.60432 2 10.776 2 11.9992C2 13.2224 2.22004 14.3942 2.62199 15.4775L12 16.3471L21.378 15.4775Z" fill="#0052B4"/>
<path d="M12.003 22.0008C16.3027 22.0008 19.9681 19.287 21.381 15.479H2.625C4.03793 19.287 7.70336 22.0008 12.003 22.0008Z" fill="#D80027"/>
</svg>
