<svg width="24" height="24" viewBox="0 0 24 24" fill="none" xmlns="http://www.w3.org/2000/svg">
<g clip-path="url(#clip0_1406_7016)">
<path d="M0.566625 8.34788C0.199031 9.4995 -4.68667e-05 10.7264 8.276e-09 11.9999C-4.68667e-05 13.2735 0.199078 14.5005 0.566672 15.6521L12 16.1739L23.4333 15.6522C23.8009 14.5005 24 13.2735 24 12C24 10.7264 23.8009 9.4995 23.4333 8.34783L12 7.82611L0.566625 8.34788Z" fill="#F0F0F0"/>
<path d="M23.4333 8.34788L11.9999 7.82616L0.566561 8.34788C0.457624 8.68931 0.363827 9.03745 0.285217 9.39136H23.7145C23.636 9.03741 23.5422 8.68922 23.4333 8.34788Z" fill="#D80027"/>
<path d="M0.285339 14.6086C0.363855 14.9625 0.457652 15.3106 0.566589 15.6521L0.567714 15.6521L11.9999 16.1738L23.4332 15.6521C23.5421 15.3107 23.6359 14.9625 23.7145 14.6086H0.285339Z" fill="#D80027"/>
<path d="M11.9999 24C17.3538 24 21.888 20.4936 23.4333 15.6521H0.56665C2.11188 20.4935 6.6462 24 11.9999 24V24Z" fill="#6DA544"/>
<path d="M12 4.57768e-05C6.6462 9.26518e-05 2.11198 3.50648 0.56665 8.34787L23.4333 8.34792C21.8881 3.50644 17.3539 -1.09817e-06 12 4.57768e-05V4.57768e-05Z" fill="#338AF3"/>
<path d="M5.4837 4.95664C5.4837 3.83272 6.27359 2.89381 7.32842 2.66347C7.16632 2.62803 6.99809 2.60886 6.82531 2.60886C5.52865 2.60886 4.47748 3.65998 4.47748 4.95668C4.47748 6.25339 5.52856 7.30451 6.82531 7.30451C6.99809 7.30451 7.16628 7.28529 7.32842 7.2499C6.27363 7.01947 5.4837 6.08056 5.4837 4.95664V4.95664Z" fill="#F0F0F0"/>
<path d="M8.7161 6.02377L8.875 6.51291H9.38932L8.97325 6.81526L9.13216 7.3044L8.7161 7.0021L8.29994 7.3044L8.45889 6.81526L8.04279 6.51291H8.5571L8.7161 6.02377Z" fill="#F0F0F0"/>
<path d="M10.3577 6.02377L10.5166 6.51291H11.0309L10.6148 6.81526L10.7738 7.3044L10.3577 7.0021L9.94156 7.3044L10.1005 6.81526L9.68445 6.51291H10.1987L10.3577 6.02377Z" fill="#F0F0F0"/>
<path d="M11.9993 6.02377L12.1582 6.51291H12.6726L12.2565 6.81526L12.4154 7.3044L11.9993 7.0021L11.5831 7.3044L11.7421 6.81526L11.326 6.51291H11.8403L11.9993 6.02377Z" fill="#F0F0F0"/>
<path d="M13.6409 6.02377L13.7999 6.51291H14.3141L13.8981 6.81526L14.057 7.3044L13.6409 7.0021L13.2247 7.3044L13.3837 6.81526L12.9676 6.51291H13.4819L13.6409 6.02377Z" fill="#F0F0F0"/>
<path d="M15.2825 6.02377L15.4414 6.51291H15.9557L15.5397 6.81526L15.6986 7.3044L15.2825 7.0021L14.8664 7.3044L15.0253 6.81526L14.6093 6.51291H15.1235L15.2825 6.02377Z" fill="#F0F0F0"/>
<path d="M10.3577 4.31625L10.5166 4.80535H11.0309L10.6148 5.10774L10.7738 5.59683L10.3577 5.29453L9.94156 5.59683L10.1005 5.10774L9.68445 4.80535H10.1987L10.3577 4.31625Z" fill="#F0F0F0"/>
<path d="M11.9993 4.31625L12.1582 4.80535H12.6726L12.2565 5.10774L12.4154 5.59683L11.9993 5.29453L11.5831 5.59683L11.7421 5.10774L11.326 4.80535H11.8403L11.9993 4.31625Z" fill="#F0F0F0"/>
<path d="M13.6409 4.31625L13.7999 4.80535H14.3141L13.8981 5.10774L14.057 5.59683L13.6409 5.29453L13.2247 5.59683L13.3837 5.10774L12.9676 4.80535H13.4819L13.6409 4.31625Z" fill="#F0F0F0"/>
<path d="M15.2825 4.31625L15.4414 4.80535H15.9557L15.5397 5.10774L15.6986 5.59683L15.2825 5.29453L14.8664 5.59683L15.0253 5.10774L14.6093 4.80535H15.1235L15.2825 4.31625Z" fill="#F0F0F0"/>
<path d="M11.9993 2.60869L12.1582 3.09788H12.6726L12.2565 3.40017L12.4154 3.88936L11.9993 3.58706L11.5831 3.88936L11.7421 3.40017L11.326 3.09788H11.8403L11.9993 2.60869Z" fill="#F0F0F0"/>
<path d="M13.6409 2.60869L13.7999 3.09788H14.3141L13.8981 3.40017L14.057 3.88936L13.6409 3.58706L13.2247 3.88936L13.3837 3.40017L12.9676 3.09788H13.4819L13.6409 2.60869Z" fill="#F0F0F0"/>
<path d="M15.2825 2.60869L15.4414 3.09788H15.9557L15.5397 3.40017L15.6986 3.88936L15.2825 3.58706L14.8664 3.88936L15.0253 3.40017L14.6093 3.09788H15.1235L15.2825 2.60869Z" fill="#F0F0F0"/>
</g>
<defs>
<clipPath id="clip0_1406_7016">
<rect width="24" height="24" fill="white"/>
</clipPath>
</defs>
</svg>
